<svg xmlns="http://www.w3.org/2000/svg" width="256" height="256" viewBox="0 0 256 256">
  <defs>
    <linearGradient id="bg" x1="0" y1="0" x2="0" y2="1">
      <stop offset="0" stop-color="#141B2B"/>
      <stop offset="1" stop-color="#0C111C"/>
    </linearGradient>
  </defs>
  <rect x="8" y="8" width="240" height="240" rx="58" fill="url(#bg)" stroke="#28324A" stroke-width="2"/>
  <g transform="translate(-17.9 -18.1) scale(0.1425)">
    <path fill="rgb(97,68,41)" d="M 1021.88 249.049 C 1029.14 248.759 1032.42 250.684 1038.62 254.163 C 1062.22 267.403 1085.39 281.437 1108.78 295.016 C 1176.38 333.834 1243.77 373.003 1310.95 412.522 L 1542.75 546.763 L 1639.17 602.835 C 1652.77 610.757 1666.55 618.323 1680.1 626.311 C 1686.42 630.038 1687.93 632.177 1691.8 638.276 C 1694.08 670.975 1692.77 722.571 1692.78 756.077 L 1692.52 967.777 L 1692.76 1269.47 C 1692.75 1310.69 1693.63 1352.07 1692.7 1393.26 C 1692.58 1398.45 1693.28 1411.83 1689.62 1415.65 C 1689.36 1415.91 1689.08 1416.15 1688.82 1416.4 C 1678.12 1426.95 1612.95 1462.07 1596.04 1471.98 L 1292.76 1648.13 C 1219.02 1691.01 1145.39 1734.11 1071.48 1776.71 C 1056.58 1785.3 1042.28 1795.58 1026.05 1801.46 C 1014.08 1800.48 916.49 1741.14 899.942 1731.61 L 562.197 1535.15 L 429.85 1458.39 C 411.405 1447.76 392.928 1437.2 374.655 1426.28 C 360.4 1417.75 356.971 1416.5 356.699 1399.32 C 356.173 1366.22 356.592 1333.11 356.606 1300.01 L 356.742 1104.17 C 357.036 949.837 354.898 793.358 357.193 639.274 C 359.749 634.672 363.055 630.385 367.62 627.661 C 406.825 604.26 447.059 581.917 486.447 558.928 L 760.149 399.563 L 943.733 293.005 C 965.709 280.416 1000.31 258.008 1021.88 249.049 z"/>
    <path fill="rgb(181,145,101)" d="M 1659.77 665.206 C 1661.33 670.701 1660.59 716.866 1660.56 724.609 L 1660.49 837.224 L 1660.68 1397.4 C 1646.24 1406.43 1628.42 1415.99 1613.32 1424.82 L 1481.63 1501.22 L 1042.24 1756.87 C 1039.05 1758.82 1039.09 1759.59 1036.13 1759.32 C 1035.07 1753.07 1035.5 1740.43 1035.5 1733.62 L 1035.48 1689.25 L 1035.4 1528.34 L 1035.38 1183.45 C 1035.46 1133.15 1034.27 1078.18 1035.62 1028.32 C 1042.84 1023.24 1056.07 1016.14 1064.25 1011.37 C 1082.92 1000.43 1101.66 989.6 1120.46 978.895 L 1262.28 896.456 L 1538.41 735.885 C 1578.44 712.597 1619.41 687.645 1659.77 665.206 z"/>
    <path fill="rgb(208,171,126)" d="M 388.937 664.481 C 398.196 669.473 407.918 675.145 416.853 680.693 C 481.697 720.96 552.792 756.547 617.048 797.194 C 653.692 818.169 690.221 839.344 726.634 860.718 C 731.765 863.68 768.976 884.761 771.884 887.302 L 937.624 983.684 C 962.778 998.319 988.561 1013.9 1013.97 1027.82 L 1013.58 1760.78 C 933.88 1714.08 851.892 1664.97 771.683 1619.62 C 752.887 1609.72 731.857 1596.77 713.31 1585.97 C 681.024 1567.49 648.876 1548.78 616.868 1529.83 C 606.578 1524.39 595.959 1517.82 585.905 1511.82 C 520.78 1472.99 454.169 1436.15 389.02 1397.42 L 388.937 664.481 z"/>
    <path fill="rgb(181,145,101)" d="M 617.048 797.194 C 653.692 818.169 690.221 839.344 726.634 860.718 C 731.765 863.68 768.976 884.761 771.884 887.302 C 772.082 954.082 773.015 1024.96 771.537 1091.55 C 761.306 1079.71 750.258 1066.72 741.079 1054.11 C 735.391 1056.62 726.856 1059.47 720.843 1061.69 C 712.493 1052.83 706.634 1043.76 697.352 1034.94 C 689.807 1034.99 680.5 1035.82 672.844 1036.3 C 662.74 1025.41 653.924 1013.85 643.71 1003.09 C 634.81 1006.54 626.75 1010.23 618.09 1014.18 L 617.505 880.816 C 617.417 853.394 618.073 824.439 617.048 797.194 z"/>
    <path fill="rgb(181,145,101)" d="M 616.868 1529.83 C 617.812 1511.2 617.247 1488.79 617.239 1469.93 L 617.189 1356.77 C 626.869 1369.35 637.697 1382.42 646.932 1395.07 C 654.848 1393.01 661.127 1393.05 668.924 1391.83 C 677.316 1402.67 686.026 1414.31 694.91 1424.67 C 703.003 1422.74 712.5 1420.73 720.33 1418.25 C 725.983 1427.46 731.747 1435.91 737.826 1444.83 C 749.457 1446.34 760.317 1447.27 772.002 1448.23 C 771.77 1504.38 772.935 1563.79 771.683 1619.62 C 752.887 1609.72 731.857 1596.77 713.31 1585.97 C 681.024 1567.49 648.876 1548.78 616.868 1529.83 z"/>
    <path fill="rgb(97,68,41)" d="M 629.488 1078.08 C 639.999 1083.08 650.714 1091.38 660.922 1096.5 C 705.893 1119.05 740.674 1146.42 759.748 1195.06 C 773.065 1229.02 781.451 1281.26 757.903 1313.37 C 730.212 1344.38 688.569 1314.98 661.872 1299.06 C 651.122 1292.75 640.283 1286.6 629.358 1280.6 C 630.181 1251.2 629.752 1221.42 629.833 1191.97 C 630.142 1154.01 630.027 1116.04 629.488 1078.08 z"/>
    <path fill="rgb(208,171,126)" d="M 672.808 1142.23 C 715.428 1162.03 727.601 1188.05 729.01 1235.15 C 729.424 1248.99 727.986 1264.29 720.321 1276.16 C 704.459 1290.93 687.203 1276.38 672.481 1267.11 C 671.849 1228.49 671.47 1180.38 672.808 1142.23 z"/>
    <path fill="rgb(97,68,41)" d="M 795.083 1173.62 C 806.665 1179.21 825.579 1190.89 837.327 1197.63 C 837.056 1227.69 837.173 1257.76 837.68 1287.82 C 853.559 1269.98 876.464 1247.89 893.794 1230.78 C 910.01 1239.57 928.878 1251.3 945.023 1260.77 C 924.648 1278.07 904.566 1295.71 884.784 1313.69 L 932.576 1429.75 C 937.597 1440.95 942.244 1453.59 946.717 1465.13 C 933.403 1456.85 908.371 1445.37 897.665 1435.61 C 889.485 1428.16 862.895 1351.07 855.641 1334.39 C 849.341 1338.7 843.698 1343.02 837.658 1347.66 C 836.432 1363.37 837.181 1386.21 837.464 1402.09 L 795.057 1377.15 L 795.083 1173.62 z"/>
    <path fill="rgb(97,68,41)" d="M 448.515 973.242 C 451.999 974.304 490.902 997.449 496.194 1000.71 C 499.398 1020.97 506.265 1048.51 510.732 1069 C 517.574 1101.8 524.757 1134.52 532.28 1167.16 C 535.657 1158.15 539.663 1142.47 542.606 1132.63 C 551.286 1102.73 560.238 1072.92 569.462 1043.18 C 584.447 1051.28 599.901 1061.47 615.727 1070.09 C 611.769 1080.45 607.886 1090.84 604.08 1101.25 C 587.393 1144.39 570.974 1192.88 555.041 1236.72 C 540.421 1228.87 522.717 1217.58 507.789 1209.01 C 498.294 1174.74 489.954 1138.49 481.31 1103.87 L 448.515 973.242 z"/>
    <path fill="rgb(225,198,160)" d="M 1024.56 282.707 L 1253.22 415.703 C 1274.66 428.58 1296.85 440.573 1318.2 453.624 C 1322.37 455.813 1334.85 462.95 1338.72 465.72 C 1360.78 478.182 1382.71 490.853 1404.53 503.73 L 1547.67 586.796 C 1581.06 606.18 1617.08 626.283 1649.97 646.242 L 1025.38 1009.78 C 976.597 981.791 927.985 953.498 879.549 924.907 C 847.991 906.563 811.678 886.795 780.761 867.508 C 777.74 866.306 765.344 858.931 762.074 857.044 C 745.918 847.59 729.817 838.042 713.773 828.399 C 710.627 827.273 697.356 818.86 693.955 816.586 C 676.484 807.777 644.844 789.169 628.039 778.701 C 619.003 773.76 609.634 768.503 600.888 763.081 C 535.547 722.57 464.631 686.996 399.959 645.724 L 1024.56 282.707 z"/>
    <path fill="rgb(208,171,126)" d="M 1253.22 415.703 C 1274.66 428.58 1296.85 440.573 1318.2 453.624 C 1301.45 465.709 1269.49 482.599 1250.87 493.533 L 1099.92 581.363 L 829.492 738.515 C 784.68 764.478 739.251 791.603 693.955 816.586 C 676.484 807.777 644.844 789.169 628.039 778.701 C 644.354 767.491 681.282 747.882 699.113 737.754 L 804.634 676.459 L 1113.88 497.721 L 1201.15 447.059 C 1209.18 442.404 1249.17 420.116 1253.22 415.703 z"/>
    <path fill="rgb(208,171,126)" d="M 1318.2 453.624 C 1322.37 455.813 1334.85 462.95 1338.72 465.72 C 1360.78 478.182 1382.71 490.853 1404.53 503.73 C 1341.12 542.838 1272.86 580.93 1208.05 618.334 L 923.902 783.504 C 884.563 805.915 845.422 828.671 806.482 851.769 C 802.821 853.948 782.428 865.603 780.761 867.508 C 777.74 866.306 765.344 858.931 762.074 857.044 C 745.918 847.59 729.817 838.042 713.773 828.399 C 710.627 827.273 697.356 818.86 693.955 816.586 C 739.251 791.603 784.68 764.478 829.492 738.515 L 1099.92 581.363 L 1250.87 493.533 C 1269.49 482.599 1301.45 465.709 1318.2 453.624 z"/>
    <path fill="rgb(181,145,101)" d="M 1318.2 453.624 C 1322.37 455.813 1334.85 462.95 1338.72 465.72 C 1222.16 534.362 1105.18 602.3 987.795 669.53 C 897.796 721.608 804.322 778.012 713.773 828.399 C 710.627 827.273 697.356 818.86 693.955 816.586 C 739.251 791.603 784.68 764.478 829.492 738.515 L 1099.92 581.363 L 1250.87 493.533 C 1269.49 482.599 1301.45 465.709 1318.2 453.624 z"/>
  </g>
</svg>
